Patient4_TMGait_0pt3_01_left_17_EMG.mot
version=1
nRows=26
nColumns=33
inDegrees=no
endheader
time	1LAddLong	2LGlutMax	3LGlutMed	4LIliopsoas	5LSemiMemb	6LBicFemLong	7LRecFem	8LVastMed	9LVastLat	10LGasMed	11LTibAnt	12lTibPost	13LPeroneusLong	14LSol	15LExtDigLong	16LFlexDigLong	17RAddLong	18RGlutMax	19RGlutMed	20RIliopsoas	21RSemiMemb	22RBicFemLong	23RRecFem	24RVastMed	25RVastLat	26RGasMed	27RTibAnt	28RTibPost	29RPeroneusLong	30RSol	31RExtDigLong	32RFlexDigLong
32.92	-0.000916	-0.065002	0.18982	-0.010681	0.000458	-0.067749	0.054474	0.010529	0.028839	-0.018921	0.020294	0.00412	0.11841	-0.045776	0.053101	0.007019	-0.005341	-0.037079	-0.05661	-0.030518	0.014648	0.10742	-0.13321	0.10498	0.082397	-0.003357	-1.0608	0.012207	-0.058594	-0.093536	-0.003967	-0.016327
32.921	0.001831	-0.10742	0.075989	0.012054	0.001068	-0.099335	0.11643	0.006256	-0.032806	-0.007019	0.059814	0.002136	0.19989	-0.01297	0.078888	-0.007477	0.036926	-0.11246	-0.049744	0.015869	0.029144	0.014343	-0.084076	-0.025482	0.056	-0.016174	-0.65109	0.01709	-0.085449	-0.016785	-0.001526	-0.024567
32.922	0.002899	-0.08606	-0.06073	0.018005	0.011749	-0.12054	0.14114	0.002747	-0.04303	0.03067	-0.000763	0.001526	0.076752	-0.008545	0.34027	0.005493	0.065765	-0.067749	-0.024109	0.10391	-0.011597	-0.084686	-0.000916	-0.15015	0.03479	-0.015106	-0.31647	0.009918	-0.11704	0.058594	-0.001831	-0.023193
32.923	0.001678	-0.056763	-0.091095	0.020294	0.022736	-0.090637	0.12238	0.008087	-0.077515	0.030365	-0.049744	0.005646	-0.030212	-0.022888	-0.052185	0.003052	0.07782	-0.044861	-0.055237	0.049896	-0.12726	-0.080872	0.026245	-0.26032	0.009003	-0.015259	0.17624	0.015259	-0.076447	-0.016022	-0.002594	-0.016174
32.924	0.004272	-0.058594	0.076752	-0.017548	0.03479	-0.040436	-0.037384	0.019989	-0.030823	0.002747	-0.09552	0.002136	-0.022125	0.022888	0.31036	0.011292	0.032196	-0.027924	-0.020599	-0.002441	-0.34073	-0.019684	0.067139	-0.22705	0.013733	-0.000153	0.54321	0.014343	0.14191	-0.085907	-0.002136	-0.007324
32.925	0.015564	-0.096283	-0.028992	-0.012054	0.026245	0.052032	-0.39444	0.030212	0.033569	-0.015564	0.023956	0.001678	0.098114	0.077667	0.77743	0.010071	-0.042725	-0.015564	0.04364	-0.027771	-0.53711	0.018921	0.038757	-0.12253	-0.015106	0.002289	0.61874	0.01358	0.17044	-0.055084	-0.003052	-0.010834
32.926	0.016479	-0.11658	-0.042267	0.004272	0.015869	0.085144	-0.41702	0.00473	0.15274	-0.020752	0.23377	0.005341	0.14008	0.18601	-0.32105	0.015869	-0.095673	-0.005951	0.068817	-0.015869	-0.43152	0.11124	0.062408	-0.068054	-0.003967	-0.002594	0.26108	0.014343	0.009766	0.10361	0.000153	-0.014343
32.927	-0.001831	-0.13794	-0.005341	0.021667	-0.006561	0.092621	-0.076141	-0.009003	0.16174	0.011749	0.21668	0.002289	0.097198	0.23621	-0.24826	0.00473	-0.12344	-0.012817	0.18509	-0.02182	0.16312	0.072327	0.081787	-0.13458	0.18539	0.000305	-0.28137	0.013428	0.013428	0.20645	-0.003662	-0.013733
32.928	0.000763	-0.14511	-0.039825	0.020294	0.002747	0.075836	0.080261	-0.014648	0.14526	0.022736	0.30304	0.009918	0.19287	0.16754	0.1973	-0.003815	-0.15991	-0.001068	0.047913	-0.10025	1.0547	0.004883	0.078583	-0.16083	0.23987	0.001526	-0.003815	0.01358	-0.064087	0.19638	-0.002441	-0.006256
32.929	0.007172	-0.13077	-0.048676	0.007019	0.020447	-0.000305	0.043182	-0.013123	0.13931	0.014801	0.1709	0.008545	0.14282	0.092926	-0.45578	-0.007172	-0.12848	0.00946	0.032806	-0.089111	0.4776	-0.024261	0.068054	-0.15976	0.19867	0.00351	0.25757	0.016785	-0.095062	0.12085	-0.00885	-0.010376
32.93	0.000916	-0.13062	-0.06424	0.00473	0.018158	-0.03891	0.040894	-0.009308	-0.005798	0.01236	-0.066681	0.018921	-0.16525	0.082245	-0.57846	-0.005951	-0.085907	0.001984	0.029297	-0.016022	0.21927	-0.067291	0.063171	-0.11185	0.19547	-0.000305	0.36407	0.016327	-0.042267	0.15503	-0.004578	-0.012512
32.931	0.001984	-0.089569	-0.014343	-0.000153	0.009613	-0.063477	0.068054	-0.00351	-0.036774	0.032043	-0.19745	-0.004425	-0.2153	-0.057983	-0.42328	-0.021973	-0.097656	-0.014954	-0.091248	0.010681	0.20538	0.001831	-0.094299	-0.11795	0.12985	0.00061	0.10346	0.01358	0.013275	0.13336	-0.003662	-0.014343
32.932	0.000305	-0.11108	0.039825	-0.010376	0.009155	-0.093689	0.09201	-0.001984	0.008392	-0.009308	-0.15274	0.019379	0.29739	-0.1001	-0.093079	-0.006256	-0.071259	-0.025024	-0.010681	-0.16251	0.16907	0.000153	-0.32181	0.02594	0.18005	0.003204	-0.10223	0.014954	0.11887	0.032501	-0.002441	-0.018005
32.933	0.008392	-0.10086	-0.042419	0.007477	0.001373	-0.059662	0.013733	0.00824	0.029907	-0.044556	-0.19058	0.000916	0.14374	-0.016327	0.032196	-0.007629	-0.048828	0.001984	-0.029144	-0.12024	0.12512	-0.021362	-0.37277	0.079803	0.14206	0.000763	-0.22598	0.013733	0.17273	0.054779	-0.001526	-0.013733
32.934	-0.005798	-0.08316	-0.11231	0.022583	-0.002136	-0.007629	0.019836	-0.000153	0.088196	-0.027466	0.007477	-0.003052	-0.15182	0.039215	-0.029144	0.001831	-0.026703	0.045929	0.01236	-0.035248	0.07431	-0.020752	-0.29373	0.033569	0.001221	0.001373	-0.15335	0.013428	0.091858	0.065918	-0.003204	-0.012512
32.935	-0.000305	-0.076599	0	0.014648	-0.007782	0.023956	0.02182	0.002747	0.064545	-0.045166	0.017853	-0.000458	0.13825	-0.055237	0.046082	-0.003815	-0.020599	0.066223	0.036316	-0.009918	0.10742	-0.044861	-0.35446	0.1503	-0.16693	-0.003815	-0.011444	0.015717	-0.014343	0.043335	-0.000305	-0.015411
32.936	-0.001221	-0.069122	0.052795	0.002289	-0.009766	0.06134	0.000153	0.000458	0.048981	-0.017853	0.010223	-0.004425	-0.052185	-0.21011	-0.075378	-0.004883	0.002899	0.059357	0.000305	0.002594	0.12009	-0.05127	-0.19211	0.26688	-0.20859	0.000763	0.034485	0.010834	-0.015869	0.047607	-0.00061	-0.010681
32.937	-0.00351	-0.098114	-0.015259	-0.0177	-0.014038	0.056458	-0.035706	-0.002289	0.053101	-0.007629	-0.007629	0.005341	0.007019	-0.19714	-0.06546	-0.007172	0.021057	0.038147	-0.10483	0.005341	0.112	-0.071716	0.052795	0.12207	-0.16678	-0.001831	0.067444	0.015564	0.031433	0.032654	-0.002899	-0.014496
32.938	-0.001373	-0.06424	-0.05188	-0.012512	-0.029907	0.021973	-0.012665	0.001373	0.050354	0.004272	0.025482	0.007477	0.02533	-0.18417	0.060883	0.006866	0.030212	0.023804	-0.14328	0.064545	0.15076	-0.079651	0.31509	0.053864	-0.18188	-0.001984	0.053101	0.015259	0.014648	0.048828	-0.002289	-0.008392
32.939	0.000458	-0.062256	-0.021057	0.008698	-0.001221	-0.033112	0.013885	0.006866	0.044556	-0.015564	0.040894	0.003204	-0.00351	-0.15549	0.1857	0.000763	0.019684	0.033112	-0.17716	0.2478	0.15076	-0.059052	0.39459	-0.090485	-0.26794	-0.005951	0.066223	0.009613	-0.006104	0.048981	-0.008392	-0.009003
32.94	-0.007019	-0.083466	-0.088043	0.013123	0.024567	-0.011597	0.048828	-0.001678	0.011139	-0.035858	-0.00946	0.007324	0.056	-0.059662	0.098114	0.005341	0.010834	0.019073	-0.077057	0.22736	0.1442	-0.021057	0.33112	-0.25955	-0.33875	-0.007782	0.15564	0.012054	-0.045624	0.036163	-0.00412	-0.00473
32.941	-0.023193	-0.081024	-0.19516	0.029755	0.025635	0.002136	0.085449	0.00412	-0.000763	-0.03479	-0.009918	0.001221	0.089722	-0.063171	0.022583	-0.005951	0.015411	-0.028534	0.20157	0.18326	0.12207	0.000305	0.22751	-0.18204	-0.46402	-0.010223	0.19196	0.011444	-0.076599	0.006409	-0.002441	-0.00946
32.942	-0.025177	-0.10147	-0.18036	0.025482	0.011749	0.032349	0.082855	0.002441	0.001831	-0.03418	0.005341	0.002899	0.024109	-0.001221	0.020294	0.001221	0.002747	-0.003357	0.21255	0.18295	0.11505	0.001068	0.12817	-0.061646	-0.44281	-0.007629	0.19119	0.011902	-0.060577	0.010376	0.00473	-0.001526
32.943	0.018158	-0.040436	-0.088654	-0.01236	0.001678	0.035095	0.041046	-0.002136	0.030212	-0.054016	-0.01236	-0.001373	0.017548	0.005951	0.086212	-0.003204	-0.006104	0.005798	0.233	0.028534	0.14404	-0.013733	-0.15366	0.022278	-0.20462	-0.00824	0.097351	0.009766	-0.039063	-0.002136	-0.001526	-0.002289
32.944	0.007477	-0.021057	-0.079651	-0.024414	-0.001373	0.031891	0.033569	-0.002136	0.042114	-0.11002	-0.000763	-0.00061	0.010071	-0.061493	0.26321	0.002899	-0.038147	-0.014191	0.059814	-0.17807	0.16998	0.047455	-0.48614	0.098267	-0.030518	-0.00412	0.000305	0.007172	-0.027771	0.004883	-0.001984	-0.001678
32.945	-0.002899	-0.034637	-0.12222	-0.012817	-0.036011	0.023499	0.040436	-0.00351	0.042114	-0.14648	0.002289	-0.001831	-0.060425	-0.05249	0.18005	0.002899	-0.045471	-0.018158	-0.1413	-0.24368	0.18662	0.027466	-0.70709	0.12344	0.069275	-0.003052	-0.059052	0.015411	-0.036926	-0.001221	-0.001373	-0.003357
